<svg xmlns="http://www.w3.org/2000/svg" xmlns:xlink="http://www.w3.org/1999/xlink" viewBox="0 0 151.75 69.4"><defs><style>.cls-1{fill:none;}.cls-2{fill:#231f20;}.cls-3{clip-path:url(#clip-path);}.cls-4{fill:url(#linear-gradient);}</style><clipPath id="clip-path" transform="translate(0 10.72)"><path class="cls-1" d="M78.72,29.14v14.8h.75q3.73,0,5.49-1.38t1.76-4.9a6.94,6.94,0,0,0-1.72-5,35.88,35.88,0,0,0,6.28-1.95,14.8,14.8,0,0,0,4.78-3.13,10.82,10.82,0,0,1,4.48,4.74,16.56,16.56,0,0,1,1.35,7.06q0,7-5.08,10.69T81.34,53.81H64.15V14H78.72v8.15h.67q3.38,0,4.9-1.31t1.53-4.59c0-2.25-.51-3.8-1.53-4.67s-2.65-1.31-4.9-1.31H64.15L60,0H82.46q9,0,13.15,3.74T99.72,14.2a12.67,12.67,0,0,1-1.91,7.14,14,14,0,0,1-5,4.59A24,24,0,0,1,86,28.4,36,36,0,0,1,78.72,29.14Zm42.9,0v14.8h.74q3.73,0,5.5-1.38t1.75-4.9a6.9,6.9,0,0,0-1.72-5,35.61,35.61,0,0,0,6.28-1.95A14.69,14.69,0,0,0,139,27.58a10.85,10.85,0,0,1,4.49,4.74,16.72,16.72,0,0,1,1.34,7.06q0,7-5.08,10.69t-15.47,3.74H107V14h14.58v8.15h.67q3.36,0,4.89-1.31c1-.87,1.54-2.4,1.54-4.59s-.52-3.8-1.54-4.67-2.65-1.31-4.89-1.31H107L102.93,0h22.42q9,0,13.15,3.74t4.11,10.46a12.67,12.67,0,0,1-1.9,7.14,14,14,0,0,1-5,4.59,24.08,24.08,0,0,1-6.81,2.47A36,36,0,0,1,121.62,29.14Z"/></clipPath><linearGradient id="linear-gradient" x1="38.07" y1="-14.76" x2="136.99" y2="84.16" gradientUnits="userSpaceOnUse"><stop offset="0" stop-color="#cc3927"/><stop offset="0.29" stop-color="#c53426"/><stop offset="0.72" stop-color="#b02823"/><stop offset="1" stop-color="#9f1d21"/></linearGradient></defs><g id="Layer_2" data-name="Layer 2"><g id="Layer_1-2" data-name="Layer 1"><path class="cls-2" d="M36.35,42.75H28.8L3.92,0H22.45L32.91,22.49,43.38,0H58ZM8.78,15.24,23,40.35V53.81H8.78ZM42.93,37.66,57.13,9.42V53.81H42.93Z" transform="translate(0 10.72)"/><path class="cls-2" d="M4.92,50.29v.82L.28,53.8v-2l2.44-1.13L.28,49.53V48Zm-.55-.72L1.3,48H6.12v1.53ZM1.94,53.28l2.72-1.54H6.12v1.54Z" transform="translate(0 10.72)"/><path class="cls-2" d="M2.93,45.48a.34.34,0,0,0-.32.17.93.93,0,0,0-.08.41,3.81,3.81,0,0,0,.05.59,4.11,4.11,0,0,0,.17.57H1.61l-.15-.76a5.16,5.16,0,0,1-.07-.79,3,3,0,0,1,.11-.82,1.21,1.21,0,0,1,.4-.6A1.24,1.24,0,0,1,2.71,44H6.12v1.26l-.7.19Zm2.18.41h1a1.13,1.13,0,0,1,.09.45A1.19,1.19,0,0,1,6,47a1.25,1.25,0,0,1-.48.46,1.53,1.53,0,0,1-.76.18,1.23,1.23,0,0,1-1-.47,2,2,0,0,1-.37-1.23h.86a.54.54,0,0,0,.15.21.44.44,0,0,0,.26.07.48.48,0,0,0,.3-.08A.39.39,0,0,0,5.11,45.89Z" transform="translate(0 10.72)"/><path class="cls-2" d="M.22,41.17,0,39.71H6.12V41l-.64.22Zm1.21.41H2.54a.43.43,0,0,0,.37.4,4,4,0,0,0,1,.09A3.16,3.16,0,0,0,4.8,42a.37.37,0,0,0,.26-.37v0H6.11a1.44,1.44,0,0,1,.09.51,1.34,1.34,0,0,1-.19.73,1.25,1.25,0,0,1-.53.46,2.44,2.44,0,0,1-.75.23,4.87,4.87,0,0,1-.87.07A3.27,3.27,0,0,1,2,43.16,1.39,1.39,0,0,1,1.39,42a1.37,1.37,0,0,1,0-.19A1.23,1.23,0,0,1,1.43,41.58Z" transform="translate(0 10.72)"/><path class="cls-2" d="M6.2,37.08a3.48,3.48,0,0,1-.11.88,1.52,1.52,0,0,1-.37.67,1.68,1.68,0,0,1-.74.44,4,4,0,0,1-1.2.15,3.1,3.1,0,0,1-1.73-.4,1.58,1.58,0,0,1-.66-1.31H2.58a2.51,2.51,0,0,0,1.18.18,2.88,2.88,0,0,0,.81-.08A.57.57,0,0,0,5,37.3a1.63,1.63,0,0,0,.1-.66,2.66,2.66,0,0,0,0-.39c0-.13,0-.26-.07-.38h1.1c0,.19.07.39.1.59S6.2,36.88,6.2,37.08Zm-2,.21h-.9V37h-.4a.85.85,0,0,0-.35.09H1.4A1.37,1.37,0,0,1,2,36a2.34,2.34,0,0,1,1.38-.34H3.8a2.75,2.75,0,0,1,.44.06Z" transform="translate(0 10.72)"/><path class="cls-2" d="M3.44,31.5H5.05v-.09a1,1,0,0,0-.15-.59.63.63,0,0,0-.53-.19.78.78,0,0,0-.55.18,3.59,3.59,0,0,0-.21-.68,1.52,1.52,0,0,0-.34-.51,1.22,1.22,0,0,1,.52-.49A1.75,1.75,0,0,1,4.55,29a1.36,1.36,0,0,1,1.16.56,2.79,2.79,0,0,1,.41,1.67v1.86H1.8V31.5h.88v-.08a.84.84,0,0,0-.14-.53.63.63,0,0,0-.5-.16.66.66,0,0,0-.51.16.84.84,0,0,0-.14.53v1.65l-1.11.45V31.09a2.1,2.1,0,0,1,.41-1.43,1.48,1.48,0,0,1,1.13-.44,1.38,1.38,0,0,1,.78.21,1.5,1.5,0,0,1,.49.54,2.44,2.44,0,0,1,.27.74A3.53,3.53,0,0,1,3.44,31.5Z" transform="translate(0 10.72)"/><path class="cls-2" d="M1.46,26.43V25l5.68,1.42.19,1.41Zm1.47.73,2.93.68-4.4,1v-1.5Z" transform="translate(0 10.72)"/><path class="cls-2" d="M3.44,20.88H5.05V20.8a1,1,0,0,0-.15-.59A.63.63,0,0,0,4.37,20a.78.78,0,0,0-.55.18,3.59,3.59,0,0,0-.21-.68A1.52,1.52,0,0,0,3.27,19a1.22,1.22,0,0,1,.52-.49,1.75,1.75,0,0,1,.76-.15,1.37,1.37,0,0,1,1.16.55,2.85,2.85,0,0,1,.41,1.68v1.86H1.8V20.88h.88v-.07a.84.84,0,0,0-.14-.53.63.63,0,0,0-.5-.16.66.66,0,0,0-.51.16.84.84,0,0,0-.14.53v1.65l-1.11.45V20.48a2.1,2.1,0,0,1,.41-1.43,1.48,1.48,0,0,1,1.13-.44,1.38,1.38,0,0,1,.78.21,1.5,1.5,0,0,1,.49.54,2.34,2.34,0,0,1,.27.74A3.5,3.5,0,0,1,3.44,20.88Z" transform="translate(0 10.72)"/><path class="cls-2" d="M6.19,15.81H5c-.13-.19-.53-.29-1.2-.29s-1.09.1-1.21.29H1.4A1.69,1.69,0,0,1,2,14.43,3,3,0,0,1,3.79,14a3,3,0,0,1,1.79.41A1.72,1.72,0,0,1,6.19,15.81ZM5,16.22H6.19a1.7,1.7,0,0,1-.61,1.38A3,3,0,0,1,3.79,18,3,3,0,0,1,2,17.6a1.7,1.7,0,0,1-.61-1.38H2.58a.61.61,0,0,0,.39.22,3.6,3.6,0,0,0,.83.07C4.48,16.51,4.89,16.41,5,16.22Z" transform="translate(0 10.72)"/><path class="cls-2" d="M2.86,11.76H1.59a1.21,1.21,0,0,1-.16-.94H2.79c0,.16,0,.31,0,.47S2.84,11.61,2.86,11.76Zm3.26.31v1.46H1.46V12.29l.62-.22Z" transform="translate(0 10.72)"/><path class="cls-2" d="M0,10.42V8.88H1.1v1.54Zm1.46,0V8.92H6.12v1.46Z" transform="translate(0 10.72)"/><path class="cls-2" d="M3.07,6.63l1.17.74L4,7.67a1.5,1.5,0,0,1-.54.55,1.43,1.43,0,0,1-.76.17,1.23,1.23,0,0,1-1-.39,2.12,2.12,0,0,1-.34-1.31,6,6,0,0,1,0-.62c0-.2.05-.41.09-.64l1.08.12c0,.16,0,.31,0,.43s0,.26,0,.4a1.4,1.4,0,0,0,0,.42.17.17,0,0,0,.18.13.22.22,0,0,0,.14,0L3,6.73ZM4.46,7,3.3,6.28,3.47,6A1.62,1.62,0,0,1,4,5.45a1.45,1.45,0,0,1,.74-.17,1.34,1.34,0,0,1,1.08.42A2.07,2.07,0,0,1,6.2,7.05a5.81,5.81,0,0,1,0,.76A4.55,4.55,0,0,1,6,8.43l-1.1-.12A7.37,7.37,0,0,0,5,7.22q0-.45-.27-.45c-.09,0-.18.07-.26.21Z" transform="translate(0 10.72)"/><g class="cls-3"><rect class="cls-4" x="23.31" width="128.43" height="69.4"/></g></g></g></svg>